<svg xmlns="http://www.w3.org/2000/svg" viewBox="0 0 1024 1024">
    <defs>
        <style>.cls-1{fill:url(#gradient);}</style>
        <linearGradient id="gradient" x1="674.57" y1="860.36" x2="349.93" y2="164.14"
            gradientUnits="userSpaceOnUse">
            <stop offset="0" stop-color="#7e50fe" />
            <stop offset="0.52" stop-color="#fb10ea" />
            <stop offset="1" stop-color="#f54351" />
        </linearGradient>
    </defs>
    <title>StateLayout Logo</title>
    <path
        d="M596.7,611.4c-4.6-2.6-10.1-3.1-16.4-1.6s-11.4,4.3-14.5,8.7-4,9.7-2.6,16,4.5,10.5,9.3,13.2,10.7,3.4,17.4,1.8,11.7-4.7,14.6-9.3,3.5-10.1,1.7-16.2S601.4,614,596.7,611.4ZM588,641c-6.6,1.5-11-1.6-12.8-9.1-.9-3.7-.7-6.7.5-9a9,9,0,0,1,6.4-4.6c6.3-1.4,10.3,1.5,12.3,8.8S594.4,639.5,588,641Z" />
    <path
        d="M634,596.5c2.2,7.1,4.5,14.2,6.8,21.2a8.9,8.9,0,0,1,0,6.8,7.1,7.1,0,0,1-4.8,3.9q-7.1,2.1-9.6-6.3c-2.2-7.1-4.4-14.3-6.5-21.5l-11.3,3.2c2.1,7.5,4.3,15,6.5,22.5,3.1,10.5,9.4,14.5,18.8,11.9A14.3,14.3,0,0,0,644,628h.2c.6,1.9,1.3,3.8,1.9,5.7l11.6-3.7c-4.4-12.2-8.6-24.5-12.7-36.8Z" />
    <path
        d="M491.8,624.8a41.1,41.1,0,0,0-7.8,1.7,27.6,27.6,0,0,0-7.2,3.1c.3,2.9.7,5.8,1.1,8.7a26.1,26.1,0,0,1,13.5-5.6c5-.5,7.8,1.4,8.5,5.9l-11.3,2.7c-9.4,2.2-13.7,6.9-12.7,14.4a11.4,11.4,0,0,0,4.8,8.2A15.7,15.7,0,0,0,491,666c5.6-.6,9.5-3.3,11.7-8h.2l.9,5.6,11.8-1.5c-1.3-7.8-2.7-15.5-4-23.3C509.8,628,503.3,623.5,491.8,624.8Zm8.1,29.5a8.5,8.5,0,0,1-5.9,3.2,6.7,6.7,0,0,1-4.6-.9,4.4,4.4,0,0,1-2.2-3.3c-.4-3.2,1.6-5.2,5.9-6.3l7.8-1.8c.1.9.3,1.8.4,2.7A8.3,8.3,0,0,1,499.9,654.3Z" />
    <path
        d="M449.8,658.9c-1.5-15-2.9-30-4.1-45l-12.2.6c1.1,18.2,2.6,36.3,4.3,54.5,12-.5,23.9-1.3,35.7-2.3l-1.2-9.4Z" />
    <path
        d="M542.1,643.3a31.1,31.1,0,0,0-.2,5h-.2a22.9,22.9,0,0,0-2.1-4.7c-4.3-7.6-8.5-15.1-12.6-22.7l-13.1,1.9c7.5,12.1,15.5,24,23.8,35.8-.5,1.8-.9,3.6-1.3,5.4s-2.9,5-6.3,5.5a11.3,11.3,0,0,1-5.8-.4l1.8,9a26.1,26.1,0,0,0,7.7-.3c8.3-1.2,13.4-7.2,15.3-17.5,2.8-14.9,5.4-29.8,7.9-44.7l-11.6,2.2C544.3,626.4,543.3,634.8,542.1,643.3Z" />
    <path
        d="M684.4,612.5c-3.3,1.2-5.7-.1-7.1-4s-3.9-10.3-5.8-15.4l8.6-3.1-3-7.9-8.5,3-4-11.1c-3.2,2.3-6.4,4.6-9.7,6.8,1,2.7,1.9,5.4,2.8,8.1l-6.2,2.1c.9,2.6,1.8,5.3,2.8,8l6.2-2.1,6.2,17.3c3,8.2,8.7,10.9,17,7.9,3.5-1.3,6-2.6,7.3-4.1-1-2.7-2.1-5.3-3.1-7.9A8.5,8.5,0,0,1,684.4,612.5Z" />
    <path
        d="M512.3,128.3c-212.1,0-384,171.9-384,384s171.9,384,384,384,384-172,384-384S724.3,128.3,512.3,128.3Zm188,607.6c-73.7,32.4-143.1,34.7-188.5,31.4l-26.4,52.1C418,784.5,333.8,712.6,287,639.1,343.3,570.5,393.2,530,485.4,491.2l31.4,52.9c95.6-43.4,164.8-109.8,221.6-173.6C674,280.2,597.1,237.7,511.8,191.9L492,241.5c-120.4-2-228.3,45.8-298.4,103.3a247.6,247.6,0,0,1,27.2-49.6c40.7-56.9,118.4-106,186.5-127.4,179-62.9,337.3,44.5,403.5,140.3C927.1,470.9,866.9,675.7,700.3,735.9ZM426.1,368.1a5.1,5.1,0,0,0,3,3.1c1.6.8,5,1.4,10.3,2s10.8,2,13.5,3.9a14.6,14.6,0,0,1,5.6,8.1,13.8,13.8,0,0,1-2.4,13c-2.9,3.6-7.6,6.3-14.2,8.3s-11.2,2.4-15.6,1.8c-1.2-3.7-2.5-7.4-3.7-11.1a24,24,0,0,0,16.3.6c3-.9,5.2-2.1,6.5-3.6a5.3,5.3,0,0,0,1.2-4.7,6.5,6.5,0,0,0-3.1-3.5c-1.7-.9-5.5-1.6-11.6-2.1-9.7-.9-15.7-4.4-18-10.9a12.9,12.9,0,0,1,2-13.1c3-3.9,8-6.9,14.7-8.8a41.5,41.5,0,0,1,14.8-2c1.1,3.5,2.1,7,3.1,10.5a24.7,24.7,0,0,0-14.5.1,14.6,14.6,0,0,0-6.6,3.6A4.3,4.3,0,0,0,426.1,368.1Zm32.8-16.4,11.2-5.9,3,11.4,9.4-2c.6,2.7,1.3,5.5,1.9,8.2l-9.3,2c1.4,5.3,2.6,10.7,3.9,16s3.1,5.7,6.4,5a8,8,0,0,0,3.7-2l1.8,8.3c-1.5,1.3-4,2.3-7.4,3-8.2,1.8-13.3-1.3-15.4-9.8-1.6-5.9-3.1-11.8-4.7-17.7l-6.6,1.6c-.8-2.7-1.5-5.4-2.3-8.2l6.7-1.6Zm47.4,6a24.4,24.4,0,0,0-13,6.7c-.7-2.9-1.3-5.7-1.9-8.6a25,25,0,0,1,7-3.7,35.1,35.1,0,0,1,7.9-2.3c11.8-2,18.7,2.7,20.4,13.5l3.6,23.2-11.1,1.6-.9-5.6h-.1a13.4,13.4,0,0,1-10.7,8.5,13,13,0,0,1-9.5-1.4,11.2,11.2,0,0,1-5.1-7.8c-1.6-7.3,2-12.5,11.1-15.3l11-3.3C514.2,358.8,511.3,356.9,506.3,357.7Zm30.2-19.9,12.1-4.5c.5,3.9,1.1,7.8,1.6,11.7l9.7-.8c.3,2.8.7,5.6,1,8.4l-9.7.9c.7,5.4,1.4,10.8,2,16.3s2.4,6,5.8,5.7a9.6,9.6,0,0,0,4.1-1.4c.2,2.8.5,5.6.8,8.4-1.7,1.1-4.4,1.8-8,2.1-8.5.8-13.2-3-14.4-11.6-.8-6.1-1.6-12.2-2.5-18.3l-6.9.9c-.4-2.8-.9-5.6-1.3-8.4l7-.9C537.4,343.5,536.9,340.7,536.5,337.8Zm54.7,36.5a23.7,23.7,0,0,0,12-3.4l.3,8.3c-3.7,2.1-8.6,3.1-14.6,3.3s-11.6-1.2-15.5-4.5-6.1-8-6.7-14.2.8-11.4,4.5-15.5,8.6-6.3,14.8-6.6,11.1,1.4,14.7,4.7,5.5,7.9,5.7,13.8c.1,1.6.1,3.2.2,4.8-9.2,0-18.5.3-27.6.7C579.9,371.7,583.9,374.5,591.2,374.3Z" />
    <path
        d="M586.5,349.5a7.5,7.5,0,0,0-5.5,2.7,9.8,9.8,0,0,0-2.6,6.4l16.4-.6C594.5,352.2,591.7,349.3,586.5,349.5Z" />
    <path
        d="M503.4,378.5a4.6,4.6,0,0,0,2.2,3.2,6.1,6.1,0,0,0,4.3.6,7.9,7.9,0,0,0,5.5-3.4,8.4,8.4,0,0,0,1.3-6.4c-.2-.9-.3-1.8-.5-2.7l-7.5,2.1C504.5,373.2,502.8,375.4,503.4,378.5Z" />
    <path class="cls-1"
        d="M596.7,611.4c-4.6-2.6-10.1-3.1-16.4-1.6s-11.4,4.3-14.5,8.7-4,9.7-2.6,16,4.5,10.5,9.3,13.2,10.7,3.4,17.4,1.8,11.7-4.7,14.6-9.3,3.5-10.1,1.7-16.2S601.4,614,596.7,611.4ZM588,641c-6.6,1.5-11-1.6-12.8-9.1-.9-3.7-.7-6.7.5-9a9,9,0,0,1,6.4-4.6c6.3-1.4,10.3,1.5,12.3,8.8S594.4,639.5,588,641Z" />
    <path class="cls-1"
        d="M634,596.5c2.2,7.1,4.5,14.2,6.8,21.2a8.9,8.9,0,0,1,0,6.8,7.1,7.1,0,0,1-4.8,3.9q-7.1,2.1-9.6-6.3c-2.2-7.1-4.4-14.3-6.5-21.5l-11.3,3.2c2.1,7.5,4.3,15,6.5,22.5,3.1,10.5,9.4,14.5,18.8,11.9A14.3,14.3,0,0,0,644,628h.2c.6,1.9,1.3,3.8,1.9,5.7l11.6-3.7c-4.4-12.2-8.6-24.5-12.7-36.8Z" />
    <path class="cls-1"
        d="M491.8,624.8a41.1,41.1,0,0,0-7.8,1.7,27.6,27.6,0,0,0-7.2,3.1c.3,2.9.7,5.8,1.1,8.7a26.1,26.1,0,0,1,13.5-5.6c5-.5,7.8,1.4,8.5,5.9l-11.3,2.7c-9.4,2.2-13.7,6.9-12.7,14.4a11.4,11.4,0,0,0,4.8,8.2A15.7,15.7,0,0,0,491,666c5.6-.6,9.5-3.3,11.7-8h.2l.9,5.6,11.8-1.5c-1.3-7.8-2.7-15.5-4-23.3C509.8,628,503.3,623.5,491.8,624.8Zm8.1,29.5a8.5,8.5,0,0,1-5.9,3.2,6.7,6.7,0,0,1-4.6-.9,4.4,4.4,0,0,1-2.2-3.3c-.4-3.2,1.6-5.2,5.9-6.3l7.8-1.8c.1.9.3,1.8.4,2.7A8.3,8.3,0,0,1,499.9,654.3Z" />
    <path class="cls-1"
        d="M449.8,658.9c-1.5-15-2.9-30-4.1-45l-12.2.6c1.1,18.2,2.6,36.3,4.3,54.5,12-.5,23.9-1.3,35.7-2.3l-1.2-9.4Z" />
    <path class="cls-1"
        d="M542.1,643.3a31.1,31.1,0,0,0-.2,5h-.2a22.9,22.9,0,0,0-2.1-4.7c-4.3-7.6-8.5-15.1-12.6-22.7l-13.1,1.9c7.5,12.1,15.5,24,23.8,35.8-.5,1.8-.9,3.6-1.3,5.4s-2.9,5-6.3,5.5a11.3,11.3,0,0,1-5.8-.4l1.8,9a26.1,26.1,0,0,0,7.7-.3c8.3-1.2,13.4-7.2,15.3-17.5,2.8-14.9,5.4-29.8,7.9-44.7l-11.6,2.2C544.3,626.4,543.3,634.8,542.1,643.3Z" />
    <path class="cls-1"
        d="M684.4,612.5c-3.3,1.2-5.7-.1-7.1-4s-3.9-10.3-5.8-15.4l8.6-3.1-3-7.9-8.5,3-4-11.1c-3.2,2.3-6.4,4.6-9.7,6.8,1,2.7,1.9,5.4,2.8,8.1l-6.2,2.1c.9,2.6,1.8,5.3,2.8,8l6.2-2.1,6.2,17.3c3,8.2,8.7,10.9,17,7.9,3.5-1.3,6-2.6,7.3-4.1-1-2.7-2.1-5.3-3.1-7.9A8.5,8.5,0,0,1,684.4,612.5Z" />
    <path class="cls-1"
        d="M512.3,128.3c-212.1,0-384,171.9-384,384s171.9,384,384,384,384-172,384-384S724.3,128.3,512.3,128.3Zm188,607.6c-73.7,32.4-143.1,34.7-188.5,31.4l-26.4,52.1C418,784.5,333.8,712.6,287,639.1,343.3,570.5,393.2,530,485.4,491.2l31.4,52.9c95.6-43.4,164.8-109.8,221.6-173.6C674,280.2,597.1,237.7,511.8,191.9L492,241.5c-120.4-2-228.3,45.8-298.4,103.3a247.6,247.6,0,0,1,27.2-49.6c40.7-56.9,118.4-106,186.5-127.4,179-62.9,337.3,44.5,403.5,140.3C927.1,470.9,866.9,675.7,700.3,735.9ZM426.1,368.1a5.1,5.1,0,0,0,3,3.1c1.6.8,5,1.4,10.3,2s10.8,2,13.5,3.9a14.6,14.6,0,0,1,5.6,8.1,13.8,13.8,0,0,1-2.4,13c-2.9,3.6-7.6,6.3-14.2,8.3s-11.2,2.4-15.6,1.8c-1.2-3.7-2.5-7.4-3.7-11.1a24,24,0,0,0,16.3.6c3-.9,5.2-2.1,6.5-3.6a5.3,5.3,0,0,0,1.2-4.7,6.5,6.5,0,0,0-3.1-3.5c-1.7-.9-5.5-1.6-11.6-2.1-9.7-.9-15.7-4.4-18-10.9a12.9,12.9,0,0,1,2-13.1c3-3.9,8-6.9,14.7-8.8a41.5,41.5,0,0,1,14.8-2c1.1,3.5,2.1,7,3.1,10.5a24.7,24.7,0,0,0-14.5.1,14.6,14.6,0,0,0-6.6,3.6A4.3,4.3,0,0,0,426.1,368.1Zm32.8-16.4,11.2-5.9,3,11.4,9.4-2c.6,2.7,1.3,5.5,1.9,8.2l-9.3,2c1.4,5.3,2.6,10.7,3.9,16s3.1,5.7,6.4,5a8,8,0,0,0,3.7-2l1.8,8.3c-1.5,1.3-4,2.3-7.4,3-8.2,1.8-13.3-1.3-15.4-9.8-1.6-5.9-3.1-11.8-4.7-17.7l-6.6,1.6c-.8-2.7-1.5-5.4-2.3-8.2l6.7-1.6Zm47.4,6a24.4,24.4,0,0,0-13,6.7c-.7-2.9-1.3-5.7-1.9-8.6a25,25,0,0,1,7-3.7,35.1,35.1,0,0,1,7.9-2.3c11.8-2,18.7,2.7,20.4,13.5l3.6,23.2-11.1,1.6-.9-5.6h-.1a13.4,13.4,0,0,1-10.7,8.5,13,13,0,0,1-9.5-1.4,11.2,11.2,0,0,1-5.1-7.8c-1.6-7.3,2-12.5,11.1-15.3l11-3.3C514.2,358.8,511.3,356.9,506.3,357.7Zm30.2-19.9,12.1-4.5c.5,3.9,1.1,7.8,1.6,11.7l9.7-.8c.3,2.8.7,5.6,1,8.4l-9.7.9c.7,5.4,1.4,10.8,2,16.3s2.4,6,5.8,5.7a9.6,9.6,0,0,0,4.1-1.4c.2,2.8.5,5.6.8,8.4-1.7,1.1-4.4,1.8-8,2.1-8.5.8-13.2-3-14.4-11.6-.8-6.1-1.6-12.2-2.5-18.3l-6.9.9c-.4-2.8-.9-5.6-1.3-8.4l7-.9C537.4,343.5,536.9,340.7,536.5,337.8Zm54.7,36.5a23.7,23.7,0,0,0,12-3.4l.3,8.3c-3.7,2.1-8.6,3.1-14.6,3.3s-11.6-1.2-15.5-4.5-6.1-8-6.7-14.2.8-11.4,4.5-15.5,8.6-6.3,14.8-6.6,11.1,1.4,14.7,4.7,5.5,7.9,5.7,13.8c.1,1.6.1,3.2.2,4.8-9.2,0-18.5.3-27.6.7C579.9,371.7,583.9,374.5,591.2,374.3Z" />
    <path class="cls-1"
        d="M586.5,349.5a7.5,7.5,0,0,0-5.5,2.7,9.8,9.8,0,0,0-2.6,6.4l16.4-.6C594.5,352.2,591.7,349.3,586.5,349.5Z" />
    <path class="cls-1"
        d="M503.4,378.5a4.6,4.6,0,0,0,2.2,3.2,6.1,6.1,0,0,0,4.3.6,7.9,7.9,0,0,0,5.5-3.4,8.4,8.4,0,0,0,1.3-6.4c-.2-.9-.3-1.8-.5-2.7l-7.5,2.1C504.5,373.2,502.8,375.4,503.4,378.5Z" />
</svg>