<svg id="layer1" data-name="layer1" xmlns="http://www.w3.org/2000/svg" viewBox="0 0 1024 1024"><defs><style>.cls-1{fill:#7e50fe;}.cls-2{fill:#bd10ea;}.cls-3{fill:#f54351;}</style></defs><title>StateLayout</title><path class="cls-1" d="M878.9,684.2,545.1,884.5c-9.2,5.6-21.3,8.3-33.4,8.3s-24.1-2.7-33.4-8.3L144.5,684.2c-18.4-11-18.4-29,0-40l56.6-33.9L458.7,764.8c14.8,8.9,33.6,13.7,53,13.7s38.2-4.8,53-13.7L822.3,610.3l56.6,33.9C897.3,655.2,897.3,673.2,878.9,684.2Z"/><path class="cls-2" d="M878.9,531.9,545.1,732.1c-9.2,5.5-21.3,8.3-33.4,8.3s-24.1-2.8-33.4-8.3L144.5,531.9c-18.4-11.1-18.4-29,0-40.1l56.6-34L458.7,612.4c14.8,8.8,33.6,13.7,53,13.7s38.2-4.9,53-13.7L822.3,457.8l56.6,34C897.3,502.9,897.3,520.8,878.9,531.9Z"/><path class="cls-3" d="M429.3,420a28.5,28.5,0,0,0,1.1-3.9,12.7,12.7,0,0,0,.1-2,13.4,13.4,0,0,0-.1-2,28.5,28.5,0,0,0-1.1-3.9,27,27,0,0,0-2-3.1,25,25,0,0,0-3.4-3.1,22.1,22.1,0,0,0-3.4-1.8,27.5,27.5,0,0,0-4.1-1.1,32.3,32.3,0,0,0-4.4,0,28.8,28.8,0,0,0-4.2,1.1,21.1,21.1,0,0,0-3.3,1.8,25.9,25.9,0,0,0-3.5,3.1c-.7,1-1.3,2.1-1.9,3.1a29.1,29.1,0,0,0-1.2,3.9,28,28,0,0,0,0,4.1,27.8,27.8,0,0,0,1.2,3.8,32.1,32.1,0,0,0,1.9,3.1,35.9,35.9,0,0,0,3.5,3.2,25.5,25.5,0,0,0,3.3,1.7,28.8,28.8,0,0,0,4.2,1.1h4.4a27.5,27.5,0,0,0,4.1-1.1,35.9,35.9,0,0,0,3.4-1.7,34.7,34.7,0,0,0,3.4-3.2A20.5,20.5,0,0,0,429.3,420Z"/><path class="cls-3" d="M625.2,420a25.2,25.2,0,0,0,1.2-3.9c0-.6.1-1.3.1-2s-.1-1.4-.1-2a29.1,29.1,0,0,0-1.2-3.9c-.6-1-1.2-2.1-1.9-3.1a25.9,25.9,0,0,0-3.5-3.1,21.1,21.1,0,0,0-3.3-1.8,17.1,17.1,0,0,0-8.6-1.1,32.5,32.5,0,0,0-4.2,1.1,26.8,26.8,0,0,0-3.3,1.8,25.9,25.9,0,0,0-3.5,3.1c-.7,1-1.3,2.1-1.9,3.1a28.5,28.5,0,0,0-1.1,3.9,28,28,0,0,0,0,4.1A27.2,27.2,0,0,0,595,420a32.1,32.1,0,0,0,1.9,3.1,35.9,35.9,0,0,0,3.5,3.2l3.3,1.7a32.5,32.5,0,0,0,4.2,1.1h4.4a28.8,28.8,0,0,0,4.2-1.1l3.3-1.7a35.9,35.9,0,0,0,3.5-3.2A32.1,32.1,0,0,0,625.2,420Z"/><path class="cls-3" d="M497,251.8a23.8,23.8,0,0,0-1.1,3.8,28.1,28.1,0,0,0,0,4.1,23.8,23.8,0,0,0,1.1,3.8,20.5,20.5,0,0,0,2,3.1,25.8,25.8,0,0,0,3.4,3.2,22.1,22.1,0,0,0,3.4,1.8,27.3,27.3,0,0,0,4.1,1h4.4a28.6,28.6,0,0,0,4.2-1,21.1,21.1,0,0,0,3.3-1.8,26.6,26.6,0,0,0,3.5-3.2,32.1,32.1,0,0,0,1.9-3.1,24,24,0,0,0,1.2-3.8c0-.7.1-1.4.1-2s-.1-1.4-.1-2.1a24,24,0,0,0-1.2-3.8,32.1,32.1,0,0,0-1.9-3.1,26.6,26.6,0,0,0-3.5-3.2,25.7,25.7,0,0,0-3.3-1.8,28.6,28.6,0,0,0-4.2-1h-4.4a27.3,27.3,0,0,0-4.1,1,36.5,36.5,0,0,0-3.4,1.8,25.8,25.8,0,0,0-3.4,3.2A20.5,20.5,0,0,0,497,251.8Z"/><path class="cls-3" d="M878.9,339.4,545.1,139.1c-9.2-5.5-21.3-8.3-33.4-8.3s-24.1,2.8-33.4,8.3L144.5,339.4c-18.4,11-18.4,29,0,40L478.3,579.7c9.3,5.5,21.4,8.3,33.4,8.3s24.2-2.8,33.4-8.3L878.9,379.4C897.3,368.4,897.3,350.4,878.9,339.4Zm-403-94.1a32.4,32.4,0,0,1,4.9-8.4,37.2,37.2,0,0,1,4.2-4.7,54.6,54.6,0,0,1,4.8-3.6c5.7-4,12.7-5.9,19.7-6.5a40.9,40.9,0,0,1,20.7,4c12.6,6,20.5,18.6,20.6,31.6h0a33.9,33.9,0,0,1-4.5,16.6c-2.8,5.1-7,9.1-11.9,12.5-9.2,6.3-22.3,8.2-33.3,5.1a40.4,40.4,0,0,1-17.4-10c-4.6-4.8-8.2-10.6-9.4-17S473.1,251.5,475.9,245.3ZM388.3,352.8a105.7,105.7,0,0,1,6.3-28.2,109.9,109.9,0,0,1,17.9-31.1,127.6,127.6,0,0,1,13.4-14.1,130.2,130.2,0,0,1,15.6-11.8,11.9,11.9,0,0,1,8.7-1,11,11,0,0,1,6.6,4.7,10.1,10.1,0,0,1,1.2,7.9,11.3,11.3,0,0,1-5.2,6.2l-3.2,2.2a112,112,0,0,0-18.2,16.8,103.2,103.2,0,0,0-13.3,21,98.9,98.9,0,0,0-7.1,23.8c-.1,1.2-.3,2.4-.4,3.6-.3,2.8-1,5.2-3.3,7.3a11.7,11.7,0,0,1-7.9,3,11.9,11.9,0,0,1-7.9-3C389.6,358.3,388,355.4,388.3,352.8Zm60.1,78c-2.8,5-7.1,9-11.9,12.4-9.2,6.4-22.4,8.3-33.3,5.1-6.6-1.9-12.9-5.2-17.4-10s-8.3-10.6-9.5-16.9-1.2-13.5,1.6-19.6a37.6,37.6,0,0,1,4.9-8.5,46.8,46.8,0,0,1,4.3-4.6,43.7,43.7,0,0,1,4.8-3.7,40.8,40.8,0,0,1,19.6-6.5,42,42,0,0,1,20.7,4.1,35.5,35.5,0,0,1,20.7,31.5h0A36.2,36.2,0,0,1,448.4,430.8Zm122.3,28.5a10.1,10.1,0,0,1-5.1,6.2,163.4,163.4,0,0,1-17,6.1,129.6,129.6,0,0,1-44.7,4.7,132,132,0,0,1-23.5-3.5,127.2,127.2,0,0,1-21.8-7.4c-2.5-1-4.4-3.8-5.1-6.1a9.8,9.8,0,0,1,1.1-8,11.2,11.2,0,0,1,6.7-4.7,12.7,12.7,0,0,1,8.6,1l2.5,1.1a122.2,122.2,0,0,0,26,6.5,125.5,125.5,0,0,0,27.4,0,122.2,122.2,0,0,0,26-6.5l2.5-1c2.8-1.2,5.5-1.9,8.6-1.1a11.4,11.4,0,0,1,6.7,4.8A9.5,9.5,0,0,1,570.7,459.3Zm-4.5-180.1a9.8,9.8,0,0,1,1.1-8,11.2,11.2,0,0,1,6.7-4.7,11.7,11.7,0,0,1,8.6,1A130.3,130.3,0,0,1,605.2,286a109,109,0,0,1,20.5,29.6,115.2,115.2,0,0,1,6.9,18,113.6,113.6,0,0,1,3.4,19.2c.2,2.6-1.4,5.5-3.3,7.3a11.7,11.7,0,0,1-7.9,3,11.9,11.9,0,0,1-7.9-3,11,11,0,0,1-3.3-7.3c-.1-1.2-.2-2.4-.4-3.6a94.6,94.6,0,0,0-7.1-23.8,102.1,102.1,0,0,0-13.2-20.9,108.9,108.9,0,0,0-18.3-16.9l-3.3-2.3C568.9,283.7,567,281.9,566.2,279.2Zm78.1,151.6a38,38,0,0,1-11.9,12.4c-9.2,6.4-22.3,8.3-33.3,5.1a38.5,38.5,0,0,1-17.4-10c-4.6-4.8-8.2-10.6-9.4-16.9s-1.2-13.5,1.6-19.6a31.4,31.4,0,0,1,4.9-8.5,36.4,36.4,0,0,1,4.2-4.6,55.8,55.8,0,0,1,4.8-3.7c5.7-3.9,12.7-5.9,19.7-6.5a42,42,0,0,1,20.7,4.1,35.6,35.6,0,0,1,20.6,31.5A34.3,34.3,0,0,1,644.3,430.8Z"/></svg>